<svg className='large_gear' xmlns="http://www.w3.org/2000/svg" height="49.584" width="49.584"><path d="M20.89 49.35c-.633-.401-.645-.445-1.045-3.885-.197-1.69-.127-1.523-.696-1.69-1.26-.368-3.287-1.226-4.1-1.735-.14-.087-.508.176-2.876 2.065-.4.32-.818.628-.928.686a1.575 1.575 0 0 1-1.114.12c-.308-.082-.633-.375-2.79-2.521-1.343-1.336-2.5-2.536-2.57-2.667-.157-.288-.167-1.03-.018-1.307.057-.108.554-.767 1.103-1.465 1.755-2.227 1.782-2.265 1.693-2.407-.448-.721-1.271-2.63-1.626-3.77-.256-.82-.26-.826-.536-.87-.153-.025-1.18-.152-2.282-.282-2.29-.27-2.497-.338-2.871-.928L0 28.325V21.26l.234-.368c.334-.528.644-.658 1.95-.813 2.498-.298 3.452-.42 3.468-.447.009-.015.117-.348.24-.74.294-.942 1.009-2.663 1.402-3.379.173-.315.299-.61.279-.656-.02-.046-.415-.565-.877-1.153-1.579-2.006-1.85-2.361-1.95-2.546-.143-.267-.129-1.013.025-1.296.07-.13 1.227-1.33 2.57-2.666 2.64-2.627 2.711-2.68 3.413-2.554.423.076.477.11 1.879 1.215.697.55 1.489 1.168 1.76 1.375l.49.376 1.133-.548c1.112-.538 2.172-.962 3.113-1.245.261-.078.485-.148.497-.155.02-.012.16-1.085.456-3.517.154-1.264.287-1.577.809-1.908L21.259 0h7.066l.369.234c.528.334.657.644.813 1.95.264 2.217.425 3.457.449 3.47.013.008.399.134.856.28.992.317 2.52.957 3.283 1.374.302.166.588.285.633.265.046-.02.815-.614 1.708-1.321s1.727-1.35 1.854-1.427c.327-.2.764-.257 1.167-.15.303.08.64.384 2.786 2.52 1.343 1.336 2.5 2.536 2.57 2.666.157.288.167 1.03.018 1.308-.058.109-.682.928-1.386 1.821-.705.893-1.325 1.695-1.379 1.782-.084.136-.052.24.225.744.178.322.323.596.323.608 0 .013.103.249.23.524.268.587.723 1.805.926 2.48.078.262.148.486.155.498.012.02 1.085.16 3.517.456 1.264.154 1.578.287 1.909.809l.233.368v7.066l-.233.369c-.328.517-.648.655-1.87.804-.564.07-1.59.194-2.28.278-.69.083-1.26.163-1.27.178-.008.014-.135.4-.28.858-.312.975-.83 2.217-1.327 3.183l-.354.688.447.58c.245.318.656.846.911 1.173.256.326.699.892.984 1.258.696.889.82 1.423.48 2.066-.06.11-1.206 1.293-2.549 2.63-2.041 2.03-2.493 2.442-2.758 2.513-.4.109-.564.105-.91-.02-.25-.09-.543-.303-2.142-1.556-1.13-.887-1.733-1.347-1.764-1.347-.018 0-.289.14-.601.313-.712.391-2.435 1.106-3.375 1.4-.392.122-.724.229-.737.237-.024.013-.185 1.254-.45 3.47-.155 1.306-.284 1.616-.812 1.95l-.368.234h-7.067zm5.565-12.292c4.167-.538 7.867-3.283 9.618-7.135.39-.859.81-2.257.96-3.19.167-1.037.166-2.853 0-3.881C36.002 16.513 30.37 12.017 24 12.448c-1.214.082-1.832.193-2.834.506-1.54.482-2.661 1.06-3.899 2.01a12.29 12.29 0 0 0-4.261 6.033c-.429 1.349-.578 2.328-.578 3.795 0 1.468.15 2.446.578 3.795 1.184 3.723 4.179 6.751 7.865 7.952 1.901.619 3.593.776 5.584.519z" fill="#027f55"/></svg>