<svg xmlns="http://www.w3.org/2000/svg" height="41.931" width="41.917"><path d="M3.542 32.663c-.115-.622-.095-.655 1.8-2.878.932-1.093.868-.954.644-1.402-.495-.99-1.13-2.735-1.283-3.53-.027-.137-.4-.213-2.928-.59-.427-.064-.858-.145-.957-.18a1.329 1.329 0 0 1-.714-.62c-.127-.236-.132-.606-.045-3.172.054-1.597.13-3.001.17-3.12.089-.262.541-.695.798-.763.1-.026.792-.098 1.539-.159 2.385-.196 2.423-.2 2.46-.337.188-.691.894-2.296 1.395-3.17.36-.63.362-.636.23-.832-.072-.109-.584-.816-1.137-1.572C4.366 8.768 4.288 8.6 4.438 8.03l.093-.356 2.183-2.03 2.184-2.03.361-.067c.519-.097.777.02 1.623.738 1.62 1.372 2.243 1.891 2.269 1.886.014-.003.282-.127.595-.277.75-.359 2.225-.906 2.893-1.075.294-.074.55-.166.566-.204.017-.039.11-.581.208-1.205.333-2.127.396-2.5.453-2.667.083-.242.552-.662.815-.73.121-.03 1.528-.006 3.125.056 3.14.122 3.214.136 3.538.642.196.305.206.358.329 1.86.061.746.134 1.59.161 1.876l.05.52.99.385c.971.378 1.842.789 2.557 1.208.199.116.37.214.382.218.019.006.762-.525 2.435-1.74.87-.63 1.14-.728 1.644-.596l.356.093 2.03 2.184 2.03 2.183.067.362c.097.518-.02.776-.738 1.622-1.218 1.438-1.892 2.25-1.886 2.272.003.013.146.323.319.69.374.795.857 2.106 1.037 2.818.072.282.162.527.2.544.039.017.848.15 1.798.295.95.146 1.826.293 1.947.326.311.087.597.324.763.634.125.234.13.618.044 3.17-.054 1.598-.13 3.002-.17 3.121-.089.262-.542.694-.799.762-.1.027-.965.112-1.922.19-.957.077-1.808.155-1.893.172-.132.026-.179.106-.33.566a9.566 9.566 0 0 1-.19.55 7.47 7.47 0 0 0-.192.442c-.209.503-.7 1.484-1 1.998-.117.198-.215.37-.219.381-.006.02.525.762 1.74 2.435.63.87.728 1.14.596 1.644l-.093.356-2.184 2.03-2.183 2.03-.362.068c-.508.094-.776-.024-1.57-.693-.368-.309-1.034-.871-1.482-1.25-.448-.378-.826-.685-.84-.682-.014.003-.325.147-.692.32-.781.367-1.846.76-2.729 1.008l-.628.177-.101.609c-.056.335-.147.892-.202 1.238l-.212 1.33c-.15.94-.408 1.324-1 1.483-.103.028-1.493 0-3.09-.063-2.427-.095-2.941-.137-3.138-.26-.296-.185-.389-.289-.51-.574-.088-.206-.125-.51-.27-2.217-.101-1.208-.163-1.845-.18-1.864a6.508 6.508 0 0 0-.54-.192c-.65-.215-2.082-.87-2.803-1.281a21.979 21.979 0 0 0-.57-.32c-.023-.007-.882.607-2.403 1.717-.896.654-1.162.752-1.672.618l-.356-.093-2.03-2.183-2.03-2.183zm10.793-3.624c2.727 2.265 6.549 2.974 9.935 1.842.754-.252 1.86-.795 2.523-1.239.736-.493 1.857-1.536 2.398-2.23 3.325-4.278 2.867-10.342-1.06-14.03-.748-.702-1.171-1.021-1.94-1.46-1.183-.675-2.184-1.036-3.482-1.255a10.369 10.369 0 0 0-6.177.834c-1.08.51-1.77.98-2.676 1.823-.907.843-1.426 1.498-2.013 2.538-1.62 2.87-1.77 6.46-.395 9.428.71 1.53 1.585 2.666 2.888 3.749z" fill="#055e40"/></svg>