<svg xmlns="http://www.w3.org/2000/svg" height="34.089" width="34.089"><path d="M14.362 33.929c-.435-.277-.443-.307-.719-2.671-.135-1.163-.087-1.047-.478-1.162-.866-.254-2.26-.844-2.82-1.193-.096-.06-.348.12-1.976 1.42-.275.219-.562.431-.638.471-.226.12-.51.15-.766.082-.212-.056-.435-.258-1.918-1.733-.923-.919-1.718-1.744-1.767-1.834-.108-.197-.115-.708-.013-.898.04-.074.382-.527.76-1.007 1.206-1.532 1.224-1.557 1.163-1.655-.308-.496-.874-1.807-1.118-2.592-.176-.564-.178-.568-.368-.598a95.38 95.38 0 0 0-1.57-.194c-1.573-.186-1.716-.232-1.973-.638L0 19.474v-4.859l.16-.253c.23-.363.444-.451 1.341-.558 1.718-.205 2.374-.29 2.385-.307.006-.01.08-.24.165-.51.202-.647.693-1.83.964-2.322.119-.217.205-.42.191-.452a17.294 17.294 0 0 0-.603-.792c-1.085-1.38-1.272-1.623-1.34-1.75-.098-.184-.089-.697.017-.891.049-.09.844-.915 1.767-1.834C6.862 3.14 6.91 3.103 7.393 3.191c.291.052.328.076 1.292.835.48.378 1.024.803 1.21.945l.337.259.779-.377c.765-.37 1.493-.661 2.14-.856.18-.054.334-.102.342-.106.014-.008.11-.746.313-2.418.106-.87.197-1.085.556-1.312L14.615 0h4.859l.253.16c.363.23.452.444.559 1.341.182 1.525.292 2.377.308 2.386.01.006.275.092.59.193.681.218 1.732.657 2.256.944.208.114.404.196.436.182.031-.013.56-.422 1.174-.908a35.992 35.992 0 0 1 1.275-.981 1.05 1.05 0 0 1 .801-.103c.21.055.441.264 1.916 1.732.923.919 1.719 1.744 1.767 1.834.108.198.115.708.013.899-.04.074-.47.638-.954 1.252a46.495 46.495 0 0 0-.948 1.225c-.057.094-.035.165.155.511.122.222.222.41.222.418 0 .01.071.171.158.36.184.404.497 1.241.637 1.706.054.18.102.333.107.342.008.014.746.11 2.418.313.868.106 1.084.197 1.312.556l.16.253v4.859l-.16.253c-.226.356-.446.45-1.285.553l-1.568.19c-.474.058-.867.113-.873.123-.006.01-.093.276-.193.59-.215.67-.57 1.524-.912 2.189l-.244.472.307.399.627.807.677.864c.478.612.563.98.329 1.42-.04.077-.828.89-1.752 1.809-1.403 1.396-1.714 1.679-1.896 1.728-.275.075-.388.072-.626-.014-.171-.061-.373-.208-1.472-1.07-.777-.61-1.192-.926-1.213-.926-.012 0-.199.097-.414.215-.489.27-1.674.76-2.32.963-.269.084-.497.157-.506.163-.017.01-.127.862-.31 2.386-.106.897-.195 1.11-.558 1.34l-.253.161h-4.859zm3.826-8.452c2.864-.37 5.408-2.257 6.612-4.905.268-.59.558-1.551.66-2.193.115-.713.114-1.961 0-2.669-.708-4.357-4.58-7.448-8.96-7.152-.834.057-1.26.133-1.948.348-1.058.331-1.83.728-2.68 1.381a8.449 8.449 0 0 0-2.93 4.149c-.294.927-.397 1.6-.397 2.609s.103 1.681.397 2.609c.814 2.56 2.873 4.641 5.408 5.466 1.307.426 2.47.534 3.839.357z" fill="#10592d"/></svg>